<?xml version="1.0" encoding="UTF-8" standalone="no"?>
<!DOCTYPE svg PUBLIC "-//W3C//DTD SVG 1.1//EN"
 "http://www.w3.org/Graphics/SVG/1.1/DTD/svg11.dtd">
<!-- Generated by graphviz version 14.1.2 (20260124.0452)
 -->
<!-- Title: G Pages: 1 -->
<svg width="932pt" height="702pt"
 viewBox="0.00 0.00 932.00 702.00" xmlns="http://www.w3.org/2000/svg" xmlns:xlink="http://www.w3.org/1999/xlink">
<g id="graph0" class="graph" transform="scale(1 1) rotate(0) translate(4 697.74)">
<title>G</title><style>.edge>path:hover{stroke-width:8}</style>
<polygon fill="white" stroke="none" points="-4,4 -4,-697.74 928.02,-697.74 928.02,4 -4,4"/>
<!-- app_py -->
<g id="node1" class="node">
<title>app_py</title><style>.edge>path:hover{stroke-width:8}</style>
<ellipse fill="#854747" stroke="black" cx="180" cy="-18" rx="27.21" ry="18"/>
<text xml:space="preserve" text-anchor="middle" x="180" y="-14.5" font-family="Helvetica,sans-Serif" font-size="10.00" fill="#ffffff">app.py</text>
</g>
<!-- board -->
<g id="node2" class="node">
<title>board</title><style>.edge>path:hover{stroke-width:8}</style>
<ellipse fill="#b6b653" stroke="black" cx="27" cy="-131.63" rx="27" ry="18"/>
<text xml:space="preserve" text-anchor="middle" x="27" y="-128.13" font-family="Helvetica,sans-Serif" font-size="10.00" fill="#000000">board</text>
</g>
<!-- board&#45;&gt;app_py -->
<g id="edge1" class="edge">
<title>board&#45;&gt;app_py</title><style>.edge>path:hover{stroke-width:8}</style>
<path fill="none" stroke="black" d="M180,-72C176.52,-64.48 175.49,-55.69 175.62,-47.46"/>
<polygon fill="#b6b653" stroke="black" points="179.11,-47.76 176.36,-37.52 172.13,-47.23 179.11,-47.76"/>
<path fill="none" stroke="black" d="M45.59,-118.29C51.06,-114.99 57.14,-111.61 63,-109 112.68,-86.83 202.83,-122.39 180,-73"/>
</g>
<!-- board_clean -->
<g id="node3" class="node">
<title>board_clean</title><style>.edge>path:hover{stroke-width:8}</style>
<ellipse fill="#b6b653" stroke="black" cx="112" cy="-131.63" rx="39.84" ry="18"/>
<text xml:space="preserve" text-anchor="middle" x="112" y="-128.13" font-family="Helvetica,sans-Serif" font-size="10.00" fill="#000000">board.clean</text>
</g>
<!-- board_clean&#45;&gt;app_py -->
<g id="edge2" class="edge">
<title>board_clean&#45;&gt;app_py</title><style>.edge>path:hover{stroke-width:8}</style>
<path fill="none" stroke="black" d="M142.78,-119.81C165.05,-110.02 189.67,-93.93 180,-73"/>
</g>
<!-- board_load_data -->
<g id="node4" class="node">
<title>board_load_data</title><style>.edge>path:hover{stroke-width:8}</style>
<ellipse fill="#b8b83d" stroke="black" cx="178" cy="-212.88" rx="41.01" ry="22.63"/>
<text xml:space="preserve" text-anchor="middle" x="178" y="-215.38" font-family="Helvetica,sans-Serif" font-size="10.00" fill="#000000">board.</text>
<text xml:space="preserve" text-anchor="middle" x="178" y="-203.38" font-family="Helvetica,sans-Serif" font-size="10.00" fill="#000000">load_data</text>
</g>
<!-- board_load_data&#45;&gt;app_py -->
<g id="edge3" class="edge">
<title>board_load_data&#45;&gt;app_py</title><style>.edge>path:hover{stroke-width:8}</style>
<path fill="none" stroke="black" d="M183.79,-190.47C190.27,-162.14 197.7,-111.31 180,-73"/>
</g>
<!-- board_query_data -->
<g id="node5" class="node">
<title>board_query_data</title><style>.edge>path:hover{stroke-width:8}</style>
<ellipse fill="#a4a446" stroke="black" cx="253" cy="-131.63" rx="45.25" ry="22.63"/>
<text xml:space="preserve" text-anchor="middle" x="253" y="-134.13" font-family="Helvetica,sans-Serif" font-size="10.00" fill="#000000">board.</text>
<text xml:space="preserve" text-anchor="middle" x="253" y="-122.13" font-family="Helvetica,sans-Serif" font-size="10.00" fill="#000000">query_data</text>
</g>
<!-- board_load_data&#45;&gt;board_query_data -->
<g id="edge4" class="edge">
<title>board_load_data&#45;&gt;board_query_data</title><style>.edge>path:hover{stroke-width:8}</style>
<path fill="none" stroke="black" d="M196.54,-192.29C205.58,-182.74 216.61,-171.09 226.51,-160.62"/>
<polygon fill="#b8b83d" stroke="black" points="228.78,-163.31 233.11,-153.64 223.7,-158.5 228.78,-163.31"/>
</g>
<!-- board_query_data&#45;&gt;app_py -->
<g id="edge5" class="edge">
<title>board_query_data&#45;&gt;app_py</title><style>.edge>path:hover{stroke-width:8}</style>
<path fill="none" stroke="black" d="M221.49,-114.96C205.79,-105.26 188.4,-91.17 180,-73"/>
</g>
<!-- board_scrape -->
<g id="node6" class="node">
<title>board_scrape</title><style>.edge>path:hover{stroke-width:8}</style>
<ellipse fill="#9d9d43" stroke="black" cx="360" cy="-131.63" rx="43.45" ry="18"/>
<text xml:space="preserve" text-anchor="middle" x="360" y="-128.13" font-family="Helvetica,sans-Serif" font-size="10.00" fill="#000000">board.scrape</text>
</g>
<!-- board_scrape&#45;&gt;app_py -->
<g id="edge6" class="edge">
<title>board_scrape&#45;&gt;app_py</title><style>.edge>path:hover{stroke-width:8}</style>
<path fill="none" stroke="black" d="M330.51,-117.91C322.91,-114.83 314.7,-111.65 307,-109 251.53,-89.89 204.61,-126.26 180,-73"/>
</g>
<!-- bs4 -->
<g id="node7" class="node">
<title>bs4</title><style>.edge>path:hover{stroke-width:8}</style>
<ellipse fill="#53b653" stroke="black" cx="418" cy="-289.51" rx="27" ry="18"/>
<text xml:space="preserve" text-anchor="middle" x="418" y="-286.01" font-family="Helvetica,sans-Serif" font-size="10.00" fill="#000000">bs4</text>
</g>
<!-- bs4&#45;&gt;board_scrape -->
<g id="edge7" class="edge">
<title>bs4&#45;&gt;board_scrape</title><style>.edge>path:hover{stroke-width:8}</style>
<path fill="none" stroke="black" d="M400.35,-275.51C384.32,-262.06 363.14,-239.47 363,-213.88"/>
</g>
<!-- flask -->
<g id="node8" class="node">
<title>flask</title><style>.edge>path:hover{stroke-width:8}</style>
<ellipse fill="#0f8a8a" stroke="black" cx="565" cy="-131.63" rx="27" ry="18"/>
<text xml:space="preserve" text-anchor="middle" x="565" y="-128.13" font-family="Helvetica,sans-Serif" font-size="10.00" fill="#ffffff">flask</text>
</g>
<!-- flask&#45;&gt;app_py -->
<g id="edge8" class="edge">
<title>flask&#45;&gt;app_py</title><style>.edge>path:hover{stroke-width:8}</style>
<path fill="none" stroke="black" d="M538.61,-126.83C451.86,-114.31 180.95,-75.06 180,-73"/>
</g>
<!-- flask_app -->
<g id="node9" class="node">
<title>flask_app</title><style>.edge>path:hover{stroke-width:8}</style>
<ellipse fill="#1da5a5" stroke="black" cx="705" cy="-603.74" rx="33.52" ry="18"/>
<text xml:space="preserve" text-anchor="middle" x="705" y="-600.24" font-family="Helvetica,sans-Serif" font-size="10.00" fill="#ffffff">flask.app</text>
</g>
<!-- flask_app&#45;&gt;flask -->
<g id="edge9" class="edge">
<title>flask_app&#45;&gt;flask</title><style>.edge>path:hover{stroke-width:8}</style>
<path fill="none" stroke="black" d="M735.93,-596.28C764.41,-589.02 806.43,-574.83 835,-549.74 874.22,-515.29 872.88,-495.78 893,-447.62"/>
</g>
<!-- flask_ctx -->
<g id="node12" class="node">
<title>flask_ctx</title><style>.edge>path:hover{stroke-width:8}</style>
<ellipse fill="#2bacac" stroke="black" cx="794" cy="-531.74" rx="32.17" ry="18"/>
<text xml:space="preserve" text-anchor="middle" x="794" y="-528.24" font-family="Helvetica,sans-Serif" font-size="10.00" fill="#000000">flask.ctx</text>
</g>
<!-- flask_app&#45;&gt;flask_ctx -->
<g id="edge10" class="edge">
<title>flask_app&#45;&gt;flask_ctx</title><style>.edge>path:hover{stroke-width:8}</style>
<path fill="none" stroke="black" d="M732.28,-581.28C743.34,-572.58 756.08,-562.56 767.11,-553.89"/>
<polygon fill="#1da5a5" stroke="black" points="730.33,-578.36 724.63,-587.3 734.65,-583.86 730.33,-578.36"/>
<polygon fill="#1da5a5" stroke="black" points="769,-556.85 774.7,-547.92 764.67,-551.35 769,-556.85"/>
</g>
<!-- flask_globals -->
<g id="node13" class="node">
<title>flask_globals</title><style>.edge>path:hover{stroke-width:8}</style>
<ellipse fill="#05e5e5" stroke="black" cx="696" cy="-446.62" rx="42.54" ry="18"/>
<text xml:space="preserve" text-anchor="middle" x="696" y="-443.12" font-family="Helvetica,sans-Serif" font-size="10.00" fill="#000000">flask.globals</text>
</g>
<!-- flask_app&#45;&gt;flask_globals -->
<g id="edge11" class="edge">
<title>flask_app&#45;&gt;flask_globals</title><style>.edge>path:hover{stroke-width:8}</style>
<path fill="none" stroke="black" d="M703.35,-574.3C701.73,-546.44 699.28,-504.19 697.66,-476.26"/>
<polygon fill="#1da5a5" stroke="black" points="699.84,-574.25 703.91,-584.03 706.83,-573.85 699.84,-574.25"/>
<polygon fill="#1da5a5" stroke="black" points="701.16,-476.18 697.09,-466.4 694.17,-476.59 701.16,-476.18"/>
</g>
<!-- flask_templating -->
<g id="node17" class="node">
<title>flask_templating</title><style>.edge>path:hover{stroke-width:8}</style>
<ellipse fill="#38a8a8" stroke="black" cx="473" cy="-212.88" rx="43.13" ry="22.63"/>
<text xml:space="preserve" text-anchor="middle" x="473" y="-215.38" font-family="Helvetica,sans-Serif" font-size="10.00" fill="#000000">flask.</text>
<text xml:space="preserve" text-anchor="middle" x="473" y="-203.38" font-family="Helvetica,sans-Serif" font-size="10.00" fill="#000000">templating</text>
</g>
<!-- flask_app&#45;&gt;flask_templating -->
<g id="edge12" class="edge">
<title>flask_app&#45;&gt;flask_templating</title><style>.edge>path:hover{stroke-width:8}</style>
<path fill="none" stroke="black" d="M680.45,-579.97C671.53,-571.03 661.76,-560.37 654,-549.74 578.33,-446 513.47,-306.78 486.44,-245.3"/>
<polygon fill="#1da5a5" stroke="black" points="677.95,-582.43 687.55,-586.91 682.84,-577.42 677.95,-582.43"/>
<polygon fill="#1da5a5" stroke="black" points="489.8,-244.25 482.59,-236.48 483.38,-247.05 489.8,-244.25"/>
</g>
<!-- flask_blueprints -->
<g id="node10" class="node">
<title>flask_blueprints</title><style>.edge>path:hover{stroke-width:8}</style>
<ellipse fill="#46a4a4" stroke="black" cx="824" cy="-212.88" rx="41.01" ry="22.63"/>
<text xml:space="preserve" text-anchor="middle" x="824" y="-215.38" font-family="Helvetica,sans-Serif" font-size="10.00" fill="#000000">flask.</text>
<text xml:space="preserve" text-anchor="middle" x="824" y="-203.38" font-family="Helvetica,sans-Serif" font-size="10.00" fill="#000000">blueprints</text>
</g>
<!-- flask_blueprints&#45;&gt;flask -->
<g id="edge13" class="edge">
<title>flask_blueprints&#45;&gt;flask</title><style>.edge>path:hover{stroke-width:8}</style>
<path fill="none" stroke="black" d="M793.06,-197.7C786.81,-195.07 780.24,-192.45 774,-190.25 714.62,-169.34 643.6,-151.15 601.51,-141.06"/>
<polygon fill="#46a4a4" stroke="black" points="602.45,-137.68 591.92,-138.78 600.84,-144.5 602.45,-137.68"/>
</g>
<!-- flask_config -->
<g id="node11" class="node">
<title>flask_config</title><style>.edge>path:hover{stroke-width:8}</style>
<ellipse fill="#53b6b6" stroke="black" cx="725" cy="-212.88" rx="39.84" ry="18"/>
<text xml:space="preserve" text-anchor="middle" x="725" y="-209.38" font-family="Helvetica,sans-Serif" font-size="10.00" fill="#000000">flask.config</text>
</g>
<!-- flask_config&#45;&gt;flask -->
<g id="edge14" class="edge">
<title>flask_config&#45;&gt;flask</title><style>.edge>path:hover{stroke-width:8}</style>
<path fill="none" stroke="black" d="M698.94,-198.97C670.86,-185.06 626.19,-162.94 596.25,-148.11"/>
<polygon fill="#53b6b6" stroke="black" points="597.82,-144.98 587.3,-143.67 594.71,-151.25 597.82,-144.98"/>
</g>
<!-- flask_ctx&#45;&gt;flask -->
<g id="edge15" class="edge">
<title>flask_ctx&#45;&gt;flask</title><style>.edge>path:hover{stroke-width:8}</style>
<path fill="none" stroke="black" d="M818.98,-520.25C845.02,-507.57 883.36,-483.37 893,-447.62"/>
<path fill="none" stroke="black" d="M893,-445.62C919.81,-346.18 946.17,-302.09 893,-213.88"/>
</g>
<!-- flask_ctx&#45;&gt;flask_globals -->
<g id="edge17" class="edge">
<title>flask_ctx&#45;&gt;flask_globals</title><style>.edge>path:hover{stroke-width:8}</style>
<path fill="none" stroke="black" d="M768.54,-509.14C754.43,-497.18 736.91,-482.32 722.62,-470.2"/>
<polygon fill="#2bacac" stroke="black" points="765.88,-511.48 775.78,-515.28 770.41,-506.14 765.88,-511.48"/>
<polygon fill="#2bacac" stroke="black" points="725.25,-467.84 715.36,-464.04 720.72,-473.18 725.25,-467.84"/>
</g>
<!-- flask_globals&#45;&gt;flask -->
<g id="edge18" class="edge">
<title>flask_globals&#45;&gt;flask</title><style>.edge>path:hover{stroke-width:8}</style>
<path fill="none" stroke="black" d="M691,-360.51C685.86,-293.81 695.75,-268.42 657,-213.88"/>
</g>
<!-- flask_globals&#45;&gt;flask_blueprints -->
<g id="edge20" class="edge">
<title>flask_globals&#45;&gt;flask_blueprints</title><style>.edge>path:hover{stroke-width:8}</style>
<path fill="none" stroke="black" d="M691,-360.51C690.29,-349.2 700.39,-349.52 710,-343.51 745.82,-321.1 769.92,-339.09 798,-307.51 812.73,-290.93 819.19,-266.69 821.99,-247.03"/>
<polygon fill="#05e5e5" stroke="black" points="825.44,-247.62 823.1,-237.29 818.49,-246.82 825.44,-247.62"/>
</g>
<!-- flask_helpers -->
<g id="node14" class="node">
<title>flask_helpers</title><style>.edge>path:hover{stroke-width:8}</style>
<ellipse fill="#17d3d3" stroke="black" cx="620" cy="-289.51" rx="43" ry="18"/>
<text xml:space="preserve" text-anchor="middle" x="620" y="-286.01" font-family="Helvetica,sans-Serif" font-size="10.00" fill="#000000">flask.helpers</text>
</g>
<!-- flask_globals&#45;&gt;flask_helpers -->
<g id="edge22" class="edge">
<title>flask_globals&#45;&gt;flask_helpers</title><style>.edge>path:hover{stroke-width:8}</style>
<path fill="none" stroke="black" d="M691,-360.51C689.66,-339.08 672.95,-321.99 656.08,-310.05"/>
<polygon fill="#05e5e5" stroke="black" points="658.34,-307.35 648.05,-304.79 654.5,-313.2 658.34,-307.35"/>
</g>
<!-- flask_json -->
<g id="node15" class="node">
<title>flask_json</title><style>.edge>path:hover{stroke-width:8}</style>
<ellipse fill="#3db8b8" stroke="black" cx="754" cy="-289.51" rx="34.88" ry="18"/>
<text xml:space="preserve" text-anchor="middle" x="754" y="-286.01" font-family="Helvetica,sans-Serif" font-size="10.00" fill="#000000">flask.json</text>
</g>
<!-- flask_globals&#45;&gt;flask_json -->
<g id="edge23" class="edge">
<title>flask_globals&#45;&gt;flask_json</title><style>.edge>path:hover{stroke-width:8}</style>
<path fill="none" stroke="black" d="M691,-360.51C689.69,-339.64 705.42,-322.15 721.48,-309.87"/>
<polygon fill="#05e5e5" stroke="black" points="723.46,-312.76 729.61,-304.13 719.43,-307.04 723.46,-312.76"/>
</g>
<!-- flask_globals&#45;&gt;flask_templating -->
<g id="edge24" class="edge">
<title>flask_globals&#45;&gt;flask_templating</title><style>.edge>path:hover{stroke-width:8}</style>
<path fill="none" stroke="black" d="M695.13,-428.42C694.24,-411.6 692.74,-385.28 691,-362.51"/>
<path fill="none" stroke="black" d="M691,-360.51C686.47,-301.16 617.38,-340.75 568,-307.51 553.2,-297.55 521.8,-265.66 499.15,-241.85"/>
<polygon fill="#05e5e5" stroke="black" points="501.7,-239.45 492.28,-234.6 496.62,-244.27 501.7,-239.45"/>
</g>
<!-- flask_wrappers -->
<g id="node18" class="node">
<title>flask_wrappers</title><style>.edge>path:hover{stroke-width:8}</style>
<ellipse fill="#05dbdb" stroke="black" cx="767" cy="-361.51" rx="47.96" ry="18"/>
<text xml:space="preserve" text-anchor="middle" x="767" y="-358.01" font-family="Helvetica,sans-Serif" font-size="10.00" fill="#000000">flask.wrappers</text>
</g>
<!-- flask_globals&#45;&gt;flask_wrappers -->
<g id="edge25" class="edge">
<title>flask_globals&#45;&gt;flask_wrappers</title><style>.edge>path:hover{stroke-width:8}</style>
<path fill="none" stroke="black" d="M717.5,-420.46C726.34,-410.11 736.55,-398.15 745.4,-387.79"/>
<polygon fill="#05e5e5" stroke="black" points="714.84,-418.17 711.01,-428.05 720.17,-422.72 714.84,-418.17"/>
<polygon fill="#05e5e5" stroke="black" points="747.94,-390.21 751.78,-380.33 742.62,-385.66 747.94,-390.21"/>
</g>
<!-- flask_helpers&#45;&gt;flask -->
<g id="edge26" class="edge">
<title>flask_helpers&#45;&gt;flask</title><style>.edge>path:hover{stroke-width:8}</style>
<path fill="none" stroke="black" d="M657,-211.88C639.69,-187.51 613.33,-165.83 593.25,-151.32"/>
<polygon fill="#17d3d3" stroke="black" points="595.41,-148.56 585.21,-145.67 591.38,-154.29 595.41,-148.56"/>
<path fill="none" stroke="black" d="M637.36,-272.85C652.6,-257.18 670.4,-232.74 657,-213.88"/>
</g>
<!-- flask_helpers&#45;&gt;flask_app -->
<g id="edge27" class="edge">
<title>flask_helpers&#45;&gt;flask_app</title><style>.edge>path:hover{stroke-width:8}</style>
<path fill="none" stroke="black" d="M620.35,-307.94C621.44,-341.5 625.87,-417.14 644,-477.74 654.78,-513.77 675.02,-552.22 689.22,-576.82"/>
<polygon fill="#17d3d3" stroke="black" points="686.04,-578.31 694.13,-585.16 692.08,-574.76 686.04,-578.31"/>
</g>
<!-- flask_helpers&#45;&gt;flask_blueprints -->
<g id="edge28" class="edge">
<title>flask_helpers&#45;&gt;flask_blueprints</title><style>.edge>path:hover{stroke-width:8}</style>
<path fill="none" stroke="black" d="M653.31,-277.87C684.68,-267.65 732.87,-251.45 774,-235.51 776.66,-234.48 779.39,-233.39 782.14,-232.27"/>
<polygon fill="#17d3d3" stroke="black" points="783.4,-235.53 791.28,-228.45 780.71,-229.07 783.4,-235.53"/>
</g>
<!-- flask_helpers&#45;&gt;flask_templating -->
<g id="edge29" class="edge">
<title>flask_helpers&#45;&gt;flask_templating</title><style>.edge>path:hover{stroke-width:8}</style>
<path fill="none" stroke="black" d="M593.38,-275C571.13,-263.7 539.04,-247.41 513.58,-234.49"/>
<polygon fill="#17d3d3" stroke="black" points="515.34,-231.45 504.83,-230.04 512.17,-237.69 515.34,-231.45"/>
</g>
<!-- flask_json&#45;&gt;flask -->
<g id="edge31" class="edge">
<title>flask_json&#45;&gt;flask</title><style>.edge>path:hover{stroke-width:8}</style>
<path fill="none" stroke="black" d="M730.37,-275.86C708.43,-262.98 676.32,-241.08 657,-213.88"/>
</g>
<!-- flask_signals -->
<g id="node16" class="node">
<title>flask_signals</title><style>.edge>path:hover{stroke-width:8}</style>
<ellipse fill="#22e7e7" stroke="black" cx="705" cy="-675.74" rx="42.54" ry="18"/>
<text xml:space="preserve" text-anchor="middle" x="705" y="-672.24" font-family="Helvetica,sans-Serif" font-size="10.00" fill="#000000">flask.signals</text>
</g>
<!-- flask_signals&#45;&gt;flask -->
<g id="edge33" class="edge">
<title>flask_signals&#45;&gt;flask</title><style>.edge>path:hover{stroke-width:8}</style>
<path fill="none" stroke="black" d="M549,-445.62C536.41,-369.89 489.52,-365.48 473,-290.51"/>
<path fill="none" stroke="black" d="M685.29,-659.34C644.78,-625.87 555.42,-541.88 549,-447.62"/>
<path fill="none" stroke="black" d="M473,-288.51C458.86,-258.69 433.48,-266.06 421,-235.51 413.39,-216.89 409.73,-206.91 421,-190.25 444.53,-155.5 492.79,-141.7 526.95,-136.23"/>
<polygon fill="#22e7e7" stroke="black" points="527.02,-139.75 536.43,-134.88 526.04,-132.82 527.02,-139.75"/>
</g>
<!-- flask_signals&#45;&gt;flask_app -->
<g id="edge34" class="edge">
<title>flask_signals&#45;&gt;flask_app</title><style>.edge>path:hover{stroke-width:8}</style>
<path fill="none" stroke="black" d="M705,-657.43C705,-650.14 705,-641.46 705,-633.27"/>
<polygon fill="#22e7e7" stroke="black" points="708.5,-633.35 705,-623.35 701.5,-633.35 708.5,-633.35"/>
</g>
<!-- flask_signals&#45;&gt;flask_ctx -->
<g id="edge35" class="edge">
<title>flask_signals&#45;&gt;flask_ctx</title><style>.edge>path:hover{stroke-width:8}</style>
<path fill="none" stroke="black" d="M719.47,-658.69C728.27,-648.51 739.44,-634.82 748,-621.74 760.93,-601.97 773.09,-578.12 781.65,-560.09"/>
<polygon fill="#22e7e7" stroke="black" points="784.8,-561.62 785.86,-551.08 778.46,-558.66 784.8,-561.62"/>
</g>
<!-- flask_signals&#45;&gt;flask_helpers -->
<g id="edge36" class="edge">
<title>flask_signals&#45;&gt;flask_helpers</title><style>.edge>path:hover{stroke-width:8}</style>
<path fill="none" stroke="black" d="M549,-445.62C538.54,-396.53 573.04,-344.46 597.56,-314.87"/>
<polygon fill="#22e7e7" stroke="black" points="599.96,-317.46 603.81,-307.58 594.64,-312.9 599.96,-317.46"/>
</g>
<!-- flask_signals&#45;&gt;flask_templating -->
<g id="edge37" class="edge">
<title>flask_signals&#45;&gt;flask_templating</title><style>.edge>path:hover{stroke-width:8}</style>
<path fill="none" stroke="black" d="M473,-288.51C470.05,-275.14 469.54,-260.1 469.95,-247.03"/>
<polygon fill="#22e7e7" stroke="black" points="473.44,-247.38 470.47,-237.21 466.45,-247.02 473.44,-247.38"/>
</g>
<!-- flask_templating&#45;&gt;flask -->
<g id="edge38" class="edge">
<title>flask_templating&#45;&gt;flask</title><style>.edge>path:hover{stroke-width:8}</style>
<path fill="none" stroke="black" d="M494.8,-193.1C508.53,-181.27 526.28,-165.98 540.5,-153.74"/>
<polygon fill="#38a8a8" stroke="black" points="542.38,-156.73 547.68,-147.55 537.82,-151.43 542.38,-156.73"/>
</g>
<!-- flask_wrappers&#45;&gt;flask -->
<g id="edge40" class="edge">
<title>flask_wrappers&#45;&gt;flask</title><style>.edge>path:hover{stroke-width:8}</style>
<path fill="none" stroke="black" d="M893,-211.88C886.39,-200.92 885.12,-196.58 874,-190.25 786.62,-140.55 664.99,-132.54 603.65,-131.96"/>
<polygon fill="#05dbdb" stroke="black" points="603.73,-128.46 593.73,-131.93 603.72,-135.46 603.73,-128.46"/>
<path fill="none" stroke="black" d="M855,-288.51C871.7,-255.25 912.21,-245.76 893,-213.88"/>
</g>
<!-- flask_wrappers&#45;&gt;flask_app -->
<g id="edge41" class="edge">
<title>flask_wrappers&#45;&gt;flask_app</title><style>.edge>path:hover{stroke-width:8}</style>
<path fill="none" stroke="black" d="M767,-447.62C766.5,-476.04 730.42,-551.87 713.54,-585.85"/>
<path fill="none" stroke="black" d="M767.18,-379.7C767.29,-393.75 767.37,-414.45 767.16,-434.18"/>
<polygon fill="#05dbdb" stroke="black" points="763.66,-434.06 767.02,-444.11 770.66,-434.16 763.66,-434.06"/>
</g>
<!-- flask_wrappers&#45;&gt;flask_blueprints -->
<g id="edge42" class="edge">
<title>flask_wrappers&#45;&gt;flask_blueprints</title><style>.edge>path:hover{stroke-width:8}</style>
<path fill="none" stroke="black" d="M855,-288.51C862.42,-273.74 856.44,-256.76 847.83,-242.73"/>
<polygon fill="#05dbdb" stroke="black" points="850.95,-241.1 842.43,-234.8 845.17,-245.04 850.95,-241.1"/>
<path fill="none" stroke="black" d="M795.12,-346.71C815.75,-334.9 842.3,-315.81 855,-290.51"/>
</g>
<!-- flask_wrappers&#45;&gt;flask_ctx -->
<g id="edge43" class="edge">
<title>flask_wrappers&#45;&gt;flask_ctx</title><style>.edge>path:hover{stroke-width:8}</style>
<path fill="none" stroke="black" d="M767,-447.62C766.58,-471.59 776.96,-497.63 784.97,-514.06"/>
</g>
<!-- flask_wrappers&#45;&gt;flask_helpers -->
<g id="edge45" class="edge">
<title>flask_wrappers&#45;&gt;flask_helpers</title><style>.edge>path:hover{stroke-width:8}</style>
<path fill="none" stroke="black" d="M727.94,-341.91C706.29,-331.6 679.49,-318.84 658.01,-308.61"/>
<polygon fill="#05dbdb" stroke="black" points="726.41,-345.06 736.94,-346.2 729.42,-338.74 726.41,-345.06"/>
<polygon fill="#05dbdb" stroke="black" points="659.52,-305.45 648.99,-304.31 656.51,-311.77 659.52,-305.45"/>
</g>
<!-- flask_wrappers&#45;&gt;flask_json -->
<g id="edge46" class="edge">
<title>flask_wrappers&#45;&gt;flask_json</title><style>.edge>path:hover{stroke-width:8}</style>
<path fill="none" stroke="black" d="M761.71,-332.04C760.89,-327.64 760.05,-323.09 759.23,-318.7"/>
<polygon fill="#05dbdb" stroke="black" points="758.24,-332.53 763.51,-341.72 765.13,-331.25 758.24,-332.53"/>
<polygon fill="#05dbdb" stroke="black" points="762.72,-318.29 757.45,-309.1 755.84,-319.57 762.72,-318.29"/>
</g>
<!-- psycopg -->
<g id="node19" class="node">
<title>psycopg</title><style>.edge>path:hover{stroke-width:8}</style>
<ellipse fill="#3333cc" stroke="black" cx="179" cy="-361.51" rx="31.72" ry="18"/>
<text xml:space="preserve" text-anchor="middle" x="179" y="-358.01" font-family="Helvetica,sans-Serif" font-size="10.00" fill="#ffffff">psycopg</text>
</g>
<!-- psycopg&#45;&gt;board_load_data -->
<g id="edge47" class="edge">
<title>psycopg&#45;&gt;board_load_data</title><style>.edge>path:hover{stroke-width:8}</style>
<path fill="none" stroke="black" d="M247,-288.51C250.67,-266.73 234.25,-248.4 216.51,-235.36"/>
<polygon fill="#3333cc" stroke="black" points="218.71,-232.62 208.47,-229.89 214.77,-238.41 218.71,-232.62"/>
<path fill="none" stroke="black" d="M201.07,-348.05C219.25,-336.08 242.69,-316.07 247,-290.51"/>
</g>
<!-- psycopg&#45;&gt;board_query_data -->
<g id="edge48" class="edge">
<title>psycopg&#45;&gt;board_query_data</title><style>.edge>path:hover{stroke-width:8}</style>
<path fill="none" stroke="black" d="M247,-288.51C252.51,-255.8 241.77,-246.63 247,-213.88"/>
</g>
<!-- psycopg_sql -->
<g id="node20" class="node">
<title>psycopg_sql</title><style>.edge>path:hover{stroke-width:8}</style>
<ellipse fill="#4747c2" stroke="black" cx="88" cy="-361.51" rx="41.19" ry="18"/>
<text xml:space="preserve" text-anchor="middle" x="88" y="-358.01" font-family="Helvetica,sans-Serif" font-size="10.00" fill="#ffffff">psycopg.sql</text>
</g>
<!-- psycopg_sql&#45;&gt;board_load_data -->
<g id="edge49" class="edge">
<title>psycopg_sql&#45;&gt;board_load_data</title><style>.edge>path:hover{stroke-width:8}</style>
<path fill="none" stroke="black" d="M209,-288.51C217.55,-274.23 211.52,-257.16 202.59,-242.96"/>
<polygon fill="#4747c2" stroke="black" points="205.55,-241.08 196.95,-234.89 199.81,-245.09 205.55,-241.08"/>
<path fill="none" stroke="black" d="M116.2,-348.11C148.52,-333.27 198.4,-308.2 209,-290.51"/>
</g>
<!-- psycopg_sql&#45;&gt;board_query_data -->
<g id="edge50" class="edge">
<title>psycopg_sql&#45;&gt;board_query_data</title><style>.edge>path:hover{stroke-width:8}</style>
<path fill="none" stroke="black" d="M209,-288.51C228.13,-256.58 241.13,-250.64 247,-213.88"/>
<path fill="none" stroke="black" d="M247,-211.88C249.4,-196.87 250.84,-180.11 251.71,-165.87"/>
<polygon fill="#4747c2" stroke="black" points="255.19,-166.29 252.23,-156.12 248.2,-165.92 255.19,-166.29"/>
</g>
<!-- urllib3 -->
<g id="node21" class="node">
<title>urllib3</title><style>.edge>path:hover{stroke-width:8}</style>
<ellipse fill="#b03ab0" stroke="black" cx="302" cy="-289.51" rx="27" ry="18"/>
<text xml:space="preserve" text-anchor="middle" x="302" y="-286.01" font-family="Helvetica,sans-Serif" font-size="10.00" fill="#ffffff">urllib3</text>
</g>
<!-- urllib3&#45;&gt;board_scrape -->
<g id="edge51" class="edge">
<title>urllib3&#45;&gt;board_scrape</title><style>.edge>path:hover{stroke-width:8}</style>
<path fill="none" stroke="black" d="M321.03,-276.44C338.98,-263.39 363.15,-240.82 363,-213.88"/>
<path fill="none" stroke="black" d="M363,-211.88C362.91,-195.04 362.22,-176.2 361.53,-161.12"/>
<polygon fill="#b03ab0" stroke="black" points="365.04,-161.27 361.05,-151.45 358.05,-161.61 365.04,-161.27"/>
</g>
<!-- urllib3_util -->
<g id="node22" class="node">
<title>urllib3_util</title><style>.edge>path:hover{stroke-width:8}</style>
<ellipse fill="#c040bf" stroke="black" cx="301" cy="-361.51" rx="34.43" ry="18"/>
<text xml:space="preserve" text-anchor="middle" x="301" y="-358.01" font-family="Helvetica,sans-Serif" font-size="10.00" fill="#ffffff">urllib3.util</text>
</g>
<!-- urllib3_util&#45;&gt;board_scrape -->
<g id="edge52" class="edge">
<title>urllib3_util&#45;&gt;board_scrape</title><style>.edge>path:hover{stroke-width:8}</style>
<path fill="none" stroke="black" d="M363,-288.51C369.7,-256.02 363.18,-247.05 363,-213.88"/>
<path fill="none" stroke="black" d="M321.56,-346.71C337.64,-334.29 358.08,-314.36 363,-290.51"/>
</g>
<!-- urllib3_util&#45;&gt;urllib3 -->
<g id="edge53" class="edge">
<title>urllib3_util&#45;&gt;urllib3</title><style>.edge>path:hover{stroke-width:8}</style>
<path fill="none" stroke="black" d="M301.25,-343.21C301.35,-335.92 301.48,-327.24 301.59,-319.05"/>
<polygon fill="#c040bf" stroke="black" points="305.09,-319.18 301.73,-309.13 298.09,-319.08 305.09,-319.18"/>
</g>
<!-- urllib3_util_retry -->
<g id="node23" class="node">
<title>urllib3_util_retry</title><style>.edge>path:hover{stroke-width:8}</style>
<ellipse fill="#ce3bce" stroke="black" cx="301" cy="-446.62" rx="31.47" ry="31.11"/>
<text xml:space="preserve" text-anchor="middle" x="301" y="-455.12" font-family="Helvetica,sans-Serif" font-size="10.00" fill="#ffffff">urllib3.</text>
<text xml:space="preserve" text-anchor="middle" x="301" y="-443.12" font-family="Helvetica,sans-Serif" font-size="10.00" fill="#ffffff">util.</text>
<text xml:space="preserve" text-anchor="middle" x="301" y="-431.12" font-family="Helvetica,sans-Serif" font-size="10.00" fill="#ffffff">retry</text>
</g>
<!-- urllib3_util_retry&#45;&gt;board_scrape -->
<g id="edge54" class="edge">
<title>urllib3_util_retry&#45;&gt;board_scrape</title><style>.edge>path:hover{stroke-width:8}</style>
<path fill="none" stroke="black" d="M319.83,-421.4C328.35,-409.39 337.86,-394.31 344,-379.51 359.51,-342.15 354.83,-330.12 363,-290.51"/>
</g>
<!-- urllib3_util_retry&#45;&gt;urllib3 -->
<g id="edge55" class="edge">
<title>urllib3_util_retry&#45;&gt;urllib3</title><style>.edge>path:hover{stroke-width:8}</style>
<path fill="none" stroke="black" d="M280.56,-422.37C265.09,-401.85 248.07,-371.01 258,-343.51 262.2,-331.87 270.2,-320.98 278.24,-312.13"/>
<polygon fill="#ce3bce" stroke="black" points="280.61,-314.7 285.09,-305.1 275.6,-309.82 280.61,-314.7"/>
</g>
<!-- urllib3_util_retry&#45;&gt;urllib3_util -->
<g id="edge56" class="edge">
<title>urllib3_util_retry&#45;&gt;urllib3_util</title><style>.edge>path:hover{stroke-width:8}</style>
<path fill="none" stroke="black" d="M301,-415.15C301,-407.36 301,-399.02 301,-391.32"/>
<polygon fill="#ce3bce" stroke="black" points="304.5,-391.45 301,-381.45 297.5,-391.45 304.5,-391.45"/>
</g>
</g>
</svg>
